<svg width="68" height="68" viewBox="0 0 68 68" fill="none" xmlns="http://www.w3.org/2000/svg">
<path d="M58.4565 46.9997C56.9531 44.4125 54.7192 37.1158 54.7192 27.625C54.7192 22.13 52.5363 16.8602 48.6508 12.9746C44.7652 9.08911 39.4954 6.90625 34.0004 6.90625C28.5054 6.90625 23.2356 9.08911 19.35 12.9746C15.4645 16.8602 13.2817 22.13 13.2817 27.625C13.2817 37.1184 11.0451 44.4125 9.54165 46.9997C9.21179 47.5645 9.03675 48.2064 9.03421 48.8605C9.03167 49.5147 9.20171 50.1579 9.52717 50.7253C9.85264 51.2927 10.322 51.7642 10.8879 52.0923C11.4538 52.4203 12.0963 52.5933 12.7504 52.5938H24.0342C24.4213 54.9564 25.6355 57.1045 27.4602 58.6545C29.2848 60.2045 31.601 61.0555 33.9951 61.0555C36.3892 61.0555 38.7054 60.2045 40.53 58.6545C42.3546 57.1045 43.5689 54.9564 43.956 52.5938H55.2504C55.9041 52.5924 56.5458 52.4187 57.111 52.0903C57.6762 51.7619 58.1448 51.2902 58.4696 50.723C58.7945 50.1557 58.9641 49.5129 58.9613 48.8592C58.9585 48.2056 58.7835 47.5642 58.4538 46.9997H58.4565ZM34.0004 57.9062C32.4462 57.9058 30.9377 57.3811 29.7187 56.417C28.4996 55.453 27.6414 54.106 27.2827 52.5938H40.7181C40.3594 54.106 39.5012 55.453 38.2822 56.417C37.0631 57.3811 35.5546 57.9058 34.0004 57.9062ZM55.7046 49.1406C55.6609 49.222 55.5956 49.2898 55.516 49.3366C55.4364 49.3835 55.3454 49.4075 55.2531 49.4062H12.7504C12.658 49.4075 12.5671 49.3835 12.4875 49.3366C12.4078 49.2898 12.3426 49.222 12.2988 49.1406C12.2522 49.0599 12.2277 48.9683 12.2277 48.875C12.2277 48.7817 12.2522 48.6901 12.2988 48.6094C14.3096 45.1562 16.4692 37.1052 16.4692 27.625C16.4692 22.9754 18.3162 18.5163 21.6039 15.2285C24.8917 11.9408 29.3508 10.0938 34.0004 10.0938C38.65 10.0938 43.1091 11.9408 46.3969 15.2285C49.6846 18.5163 51.5317 22.9754 51.5317 27.625C51.5317 37.1025 53.6938 45.143 55.7046 48.6094C55.7512 48.6901 55.7758 48.7817 55.7758 48.875C55.7758 48.9683 55.7512 49.0599 55.7046 49.1406Z" fill="black"/>
</svg>
