<svg width="68" height="68" viewBox="0 0 68 68" fill="none" xmlns="http://www.w3.org/2000/svg">
<path d="M34 17.5312C32.0036 17.5312 30.0521 18.1232 28.3922 19.2324C26.7323 20.3415 25.4386 21.9179 24.6746 23.7623C23.9106 25.6067 23.7107 27.6362 24.1002 29.5942C24.4897 31.5522 25.451 33.3507 26.8626 34.7624C28.2743 36.174 30.0728 37.1353 32.0308 37.5248C33.9888 37.9143 36.0183 37.7144 37.8627 36.9504C39.7071 36.1864 41.2835 34.8927 42.3926 33.2328C43.5018 31.5729 44.0938 29.6214 44.0938 27.625C44.0938 24.948 43.0303 22.3806 41.1374 20.4876C39.2444 18.5947 36.677 17.5312 34 17.5312ZM34 34.5312C32.6341 34.5312 31.2988 34.1262 30.1631 33.3673C29.0274 32.6085 28.1422 31.5299 27.6195 30.2679C27.0967 29.006 26.96 27.6173 27.2265 26.2777C27.4929 24.938 28.1507 23.7074 29.1165 22.7415C30.0824 21.7757 31.313 21.1179 32.6527 20.8515C33.9923 20.585 35.381 20.7217 36.6429 21.2445C37.9049 21.7672 38.9835 22.6524 39.7423 23.7881C40.5012 24.9238 40.9062 26.2591 40.9062 27.625C40.9062 29.4567 40.1786 31.2133 38.8835 32.5085C37.5883 33.8036 35.8317 34.5312 34 34.5312ZM34 4.78125C27.9436 4.78828 22.1373 7.19728 17.8548 11.4798C13.5723 15.7623 11.1633 21.5686 11.1562 27.625C11.1562 35.8355 14.9653 44.5559 22.1717 52.8434C25.4243 56.6024 29.085 59.9878 33.0862 62.9372C33.3541 63.1246 33.6731 63.2251 34 63.2251C34.3269 63.2251 34.6459 63.1246 34.9138 62.9372C38.915 59.9878 42.5757 56.6024 45.8283 52.8434C53.0347 44.5559 56.8438 35.8434 56.8438 27.625C56.8367 21.5686 54.4277 15.7623 50.1452 11.4798C45.8627 7.19728 40.0564 4.78828 34 4.78125ZM34 59.6355C30.0156 56.5595 14.3438 43.4616 14.3438 27.625C14.3438 22.4118 16.4147 17.4122 20.1009 13.7259C23.7872 10.0397 28.7868 7.96875 34 7.96875C39.2132 7.96875 44.2128 10.0397 47.8991 13.7259C51.5853 17.4122 53.6562 22.4118 53.6562 27.625C53.6563 43.4616 37.9844 56.5595 34 59.6355Z" fill="black"/>
</svg>
